<svg width="41" height="34" fill="none" xmlns="http://www.w3.org/2000/svg"><path d="M40.422 10.982c0 2.54-.537 5.079-1.611 7.618-.977 2.441-2.198 4.492-3.663 6.152a41.058 41.058 0 01-4.687 4.541c-1.563 1.27-2.93 2.246-4.102 2.93-1.074.586-1.757.879-2.05.879-1.172 0-2.1-.88-2.784-2.637 2.637-1.563 4.786-3.37 6.446-5.42 1.66-2.149 2.685-3.809 3.076-4.98.488-1.27.732-2.247.732-2.93 0-1.27-1.025-2.979-3.076-5.127-1.953-2.246-2.93-4.053-2.93-5.42 0-1.758.977-3.223 2.93-4.395C30.656.923 32.853.29 35.295.29c.977 0 1.953.147 2.93.44 1.465 2.148 2.197 5.566 2.197 10.253zm-21.094 0c0 2.54-.537 5.079-1.611 7.618-.977 2.441-2.197 4.492-3.662 6.152a49.821 49.821 0 01-4.541 4.541c-1.563 1.27-2.93 2.246-4.102 2.93-1.074.586-1.758.879-2.05.879-1.27 0-2.247-.88-2.93-2.637 2.636-1.563 4.785-3.37 6.445-5.42 1.758-2.149 2.832-3.809 3.223-4.98.488-1.27.732-2.247.732-2.93 0-1.27-1.025-2.979-3.076-5.127-1.953-2.246-2.93-4.053-2.93-5.42 0-1.758.977-3.223 2.93-4.395C9.709.923 11.906.29 14.348.29c.879 0 1.855.147 2.93.44 1.367 1.953 2.05 5.37 2.05 10.253z" fill="#FAB36D"/></svg>